<?xml version="1.0" encoding="UTF-8"?>
<!DOCTYPE svg PUBLIC "-//W3C//DTD SVG 1.1//EN" "http://www.w3.org/Graphics/SVG/1.1/DTD/svg11.dtd">
<svg xmlns="http://www.w3.org/2000/svg" version="1.1" width="1120px" height="1478px" style="shape-rendering:geometricPrecision; text-rendering:geometricPrecision; image-rendering:optimizeQuality; fill-rule:evenodd; clip-rule:evenodd" xmlns:xlink="http://www.w3.org/1999/xlink">
<g><path style="opacity:1" fill="#fefefe" d="M 831.5,388.5 C 828.833,388.5 826.167,388.5 823.5,388.5C 821.497,332.482 807.33,279.816 781,230.5C 760.566,193.732 731.399,166.232 693.5,148C 654.384,131.245 615.717,131.578 577.5,149C 603.623,166.123 625.456,187.623 643,213.5C 677.165,265.857 700.331,322.857 712.5,384.5C 716.404,402.73 719.737,421.063 722.5,439.5C 743.166,440.556 763.833,441.556 784.5,442.5C 782.198,624.16 780.532,805.827 779.5,987.5C 734.694,988.446 690.027,988.446 645.5,987.5C 645.833,879.165 645.5,770.831 644.5,662.5C 643.893,662.624 643.56,662.957 643.5,663.5C 596.848,732.789 549.681,801.789 502,870.5C 493.944,858.617 486.11,846.617 478.5,834.5C 478.167,833.5 477.5,832.833 476.5,832.5C 436.552,771.224 396.219,710.224 355.5,649.5C 355.013,648.527 354.513,647.527 354,646.5C 353.5,749.833 353.333,853.166 353.5,956.5C 308.5,956.5 263.5,956.5 218.5,956.5C 217.718,772.167 217.051,587.834 216.5,403.5C 218.167,403.5 219.833,403.5 221.5,403.5C 253.507,403.833 285.507,403.5 317.5,402.5C 320.095,391.191 322.428,379.858 324.5,368.5C 334.669,310.144 355.169,255.811 386,205.5C 401.833,181.667 421.667,161.833 445.5,146C 486.147,122.34 527.314,121.507 569,143.5C 631.251,116.46 688.418,124.626 740.5,168C 775.458,200.373 799.958,239.54 814,285.5C 824.372,319.067 830.206,353.401 831.5,388.5 Z M 823.5,388.5 C 786.776,387.181 749.776,385.847 712.5,384.5C 700.331,322.857 677.165,265.857 643,213.5C 625.456,187.623 603.623,166.123 577.5,149C 615.717,131.578 654.384,131.245 693.5,148C 731.399,166.232 760.566,193.732 781,230.5C 807.33,279.816 821.497,332.482 823.5,388.5 Z M 442.5,370.5 C 441.596,371.209 441.263,372.209 441.5,373.5C 405.173,372.015 368.84,370.682 332.5,369.5C 342.03,318.406 359.197,270.073 384,224.5C 400.973,194.192 424.14,169.692 453.5,151C 488.551,132.477 523.884,131.81 559.5,149C 534.133,164.699 512.967,184.865 496,209.5C 465.306,258.748 447.473,312.414 442.5,370.5 Z M 703.5,383.5 C 645.582,381.788 587.749,379.455 530,376.5C 529.667,376.833 529.333,377.167 529,377.5C 521,376.833 513,376.167 505,375.5C 504,375.833 503,376.167 502,376.5C 494.667,375.833 487.333,375.167 480,374.5C 479,374.833 478,375.167 477,375.5C 469.667,374.833 462.333,374.167 455,373.5C 454,373.833 453,374.167 452,374.5C 450.961,373.756 450.461,372.756 450.5,371.5C 455.587,312.736 474.087,258.736 506,209.5C 522.453,185.871 543.287,167.204 568.5,153.5C 595.012,169.843 617.178,190.843 635,216.5C 668.65,267.588 691.483,323.254 703.5,383.5 Z"/></g>
<g><path style="opacity:1" fill="#b2b3b3" d="M 324.5,368.5 C 322.428,379.858 320.095,391.191 317.5,402.5C 285.507,403.5 253.507,403.833 221.5,403.5C 239.488,400.753 257.154,396.253 274.5,390C 285.342,384.923 294.675,377.923 302.5,369C 309.826,368.5 317.159,368.334 324.5,368.5 Z"/></g>
<g><path style="opacity:1" fill="#b2b3b3" d="M 332.5,369.5 C 368.84,370.682 405.173,372.015 441.5,373.5C 441.263,372.209 441.596,371.209 442.5,370.5C 442.5,371.5 442.5,372.5 442.5,373.5C 445.533,373.868 448.2,373.202 450.5,371.5C 450.461,372.756 450.961,373.756 452,374.5C 453,374.167 454,373.833 455,373.5C 462.333,374.167 469.667,374.833 477,375.5C 478,375.167 479,374.833 480,374.5C 487.333,375.167 494.667,375.833 502,376.5C 503,376.167 504,375.833 505,375.5C 513,376.167 521,376.833 529,377.5C 529.333,377.167 529.667,376.833 530,376.5C 587.749,379.455 645.582,381.788 703.5,383.5C 703.5,384.167 703.833,384.5 704.5,384.5C 708.471,402.359 711.805,420.359 714.5,438.5C 688.141,437.609 661.807,436.276 635.5,434.5C 634.5,434.833 633.5,435.167 632.5,435.5C 588.858,499.798 544.858,563.798 500.5,627.5C 457.626,552.918 414.626,478.418 371.5,404C 356.504,403.5 341.504,403.333 326.5,403.5C 327.342,391.957 329.342,380.623 332.5,369.5 Z"/></g>
<g><path style="opacity:1" fill="#b2b3b3" d="M 712.5,384.5 C 749.776,385.847 786.776,387.181 823.5,388.5C 826.167,388.5 828.833,388.5 831.5,388.5C 854.808,390.035 878.474,391.035 902.5,391.5C 902.5,579.5 902.5,767.5 902.5,955.5C 883.83,955.333 865.164,955.5 846.5,956C 824.145,966.512 801.812,977.012 779.5,987.5C 780.532,805.827 782.198,624.16 784.5,442.5C 763.833,441.556 743.166,440.556 722.5,439.5C 719.737,421.063 716.404,402.73 712.5,384.5 Z"/></g>
<g><path style="opacity:1" fill="#aeb3b8" d="M 355.5,649.5 C 354.501,751.332 354.167,853.332 354.5,955.5C 354.5,956.167 354.167,956.5 353.5,956.5C 353.333,853.166 353.5,749.833 354,646.5C 354.513,647.527 355.013,648.527 355.5,649.5 Z"/></g>
<g><path style="opacity:1" fill="#b2b3b3" d="M 355.5,649.5 C 396.219,710.224 436.552,771.224 476.5,832.5C 476.5,857.167 476.5,881.833 476.5,906.5C 458.659,906.17 440.992,906.503 423.5,907.5C 400.5,923.5 377.5,939.5 354.5,955.5C 354.167,853.332 354.501,751.332 355.5,649.5 Z"/></g>
<g><path style="opacity:1" fill="#dbefff" d="M 643.5,663.5 C 643.56,662.957 643.893,662.624 644.5,662.5C 645.5,770.831 645.833,879.165 645.5,987.5C 644.833,879.5 644.167,771.5 643.5,663.5 Z"/></g>
<g><path style="opacity:1" fill="#aeb3b8" d="M 476.5,832.5 C 477.5,832.833 478.167,833.5 478.5,834.5C 477.502,858.661 477.169,882.994 477.5,907.5C 459.5,907.5 441.5,907.5 423.5,907.5C 440.992,906.503 458.659,906.17 476.5,906.5C 476.5,881.833 476.5,857.167 476.5,832.5 Z"/></g>
<g><path style="opacity:1" fill="#fcfdfe" d="M 595.5,1033.5 C 618.075,1033.17 640.575,1033.51 663,1034.5C 676,1079.5 689,1124.5 702,1169.5C 704.578,1164.77 706.578,1159.77 708,1154.5C 710.432,1153.55 712.932,1153.55 715.5,1154.5C 705.921,1183 695.755,1211.33 685,1239.5C 684.465,1241.27 683.631,1241.6 682.5,1240.5C 661.758,1174.61 641.425,1108.61 621.5,1042.5C 613.16,1042.67 604.827,1042.5 596.5,1042C 595.556,1039.28 595.223,1036.45 595.5,1033.5 Z"/></g>
<g><path style="opacity:1" fill="#fcfdff" d="M 740.5,1033.5 C 760.5,1033.5 780.5,1033.5 800.5,1033.5C 800.5,1036.5 800.5,1039.5 800.5,1042.5C 795.5,1042.5 790.5,1042.5 785.5,1042.5C 785.667,1091.17 785.5,1139.83 785,1188.5C 782.085,1207.19 772.585,1221.35 756.5,1231C 770.496,1231.5 784.496,1231.67 798.5,1231.5C 798.784,1234.78 798.451,1237.94 797.5,1241C 772.502,1241.5 747.502,1241.67 722.5,1241.5C 722.5,1238.5 722.5,1235.5 722.5,1232.5C 730.234,1232.99 736.067,1229.99 740,1223.5C 740.5,1160.17 740.667,1096.83 740.5,1033.5 Z"/></g>
<g><path style="opacity:1" fill="#fbfdfe" d="M 416.5,1034.5 C 425.83,1035.06 435.163,1035.89 444.5,1037C 450.257,1043.85 448.59,1048.18 439.5,1050C 418.606,1049.8 397.94,1051.8 377.5,1056C 349.359,1062.79 341.859,1078.96 355,1104.5C 358.5,1108 362,1111.5 365.5,1115C 376.51,1121.84 387.844,1128.17 399.5,1134C 410.206,1140.37 419.372,1148.54 427,1158.5C 438.01,1177.23 437.676,1195.89 426,1214.5C 417.504,1228.34 406.837,1240.34 394,1250.5C 387.172,1248.42 380.338,1246.25 373.5,1244C 371.153,1243.29 369.153,1242.12 367.5,1240.5C 382.139,1234.69 393.972,1225.36 403,1212.5C 408.16,1201.12 408.826,1189.45 405,1177.5C 400.703,1167.07 394.537,1157.91 386.5,1150C 374.185,1140.51 361.518,1131.51 348.5,1123C 331.343,1110.52 322.843,1093.69 323,1072.5C 325.747,1060.75 332.581,1052.25 343.5,1047C 352.558,1043.4 361.891,1040.74 371.5,1039C 386.564,1036.57 401.564,1035.07 416.5,1034.5 Z"/></g>
<g><path style="opacity:1" fill="#fcfdfe" d="M 598.5,1233.5 C 604.868,1233.83 611.202,1233.5 617.5,1232.5C 617.376,1231.89 617.043,1231.56 616.5,1231.5C 598.346,1185.19 580.18,1138.85 562,1092.5C 560.077,1096.09 558.244,1099.75 556.5,1103.5C 554.257,1104.47 551.924,1104.81 549.5,1104.5C 557.472,1081.55 566.306,1058.88 576,1036.5C 576.893,1035.29 577.726,1035.29 578.5,1036.5C 605.704,1101.74 633.038,1166.91 660.5,1232C 665.418,1232.19 670.251,1232.69 675,1233.5C 675.777,1236.43 675.61,1239.26 674.5,1242C 649.169,1242.5 623.836,1242.67 598.5,1242.5C 598.5,1239.5 598.5,1236.5 598.5,1233.5 Z"/></g>
<g><path style="opacity:1" fill="#fafdfe" d="M 300.5,1051.5 C 301.124,1051.92 301.457,1052.58 301.5,1053.5C 292.385,1079.31 298.385,1100.81 319.5,1118C 331.658,1126.91 343.992,1135.58 356.5,1144C 369.385,1153.21 378.885,1165.04 385,1179.5C 392.221,1204.15 385.054,1223.32 363.5,1237C 350.887,1238.13 338.22,1238.63 325.5,1238.5C 313.136,1238.47 300.802,1238.14 288.5,1237.5C 289.22,1231.86 289.553,1226.2 289.5,1220.5C 314.169,1220.67 338.836,1220.5 363.5,1220C 374.256,1205.37 374.089,1190.87 363,1176.5C 359.466,1172.63 355.633,1169.13 351.5,1166C 333.209,1154.71 316.376,1141.54 301,1126.5C 284.542,1101.55 284.375,1076.55 300.5,1051.5 Z"/></g>
<g><path style="opacity:1" fill="#fcfdfe" d="M 548.5,1153.5 C 555.508,1153.33 562.508,1153.5 569.5,1154C 570.938,1154.22 572.271,1154.72 573.5,1155.5C 565.178,1161.8 559.011,1169.8 555,1179.5C 551.69,1189.41 548.69,1199.41 546,1209.5C 532.701,1238.07 510.868,1248.07 480.5,1239.5C 487.862,1233.3 494.362,1226.3 500,1218.5C 504.1,1208.44 507.434,1198.1 510,1187.5C 517.78,1170.21 530.613,1158.87 548.5,1153.5 Z"/></g>
<g><path style="opacity:1" fill="#f8fbfe" d="M 435.5,1156.5 C 441.177,1160.01 447.177,1163.01 453.5,1165.5C 468.305,1201.75 458.971,1229.75 425.5,1249.5C 421.226,1248.03 417.226,1246.03 413.5,1243.5C 426.256,1234.91 436.423,1223.91 444,1210.5C 446.92,1200.6 447.253,1190.6 445,1180.5C 442.316,1172.28 439.15,1164.28 435.5,1156.5 Z"/></g>
<g><path style="opacity:1" fill="#cbe8ff" d="M 616.5,1231.5 C 617.043,1231.56 617.376,1231.89 617.5,1232.5C 611.202,1233.5 604.868,1233.83 598.5,1233.5C 604.5,1232.83 610.5,1232.17 616.5,1231.5 Z"/></g>
</svg>
