<?xml version="1.0" encoding="UTF-8"?>
<!DOCTYPE svg PUBLIC "-//W3C//DTD SVG 1.1//EN" "http://www.w3.org/Graphics/SVG/1.1/DTD/svg11.dtd">
<svg xmlns="http://www.w3.org/2000/svg" version="1.1" width="1120px" height="1478px" style="shape-rendering:geometricPrecision; text-rendering:geometricPrecision; image-rendering:optimizeQuality; fill-rule:evenodd; clip-rule:evenodd" xmlns:xlink="http://www.w3.org/1999/xlink">
<g><path style="opacity:1" fill="#b8dffd" d="M 494.5,132.5 C 496.265,131.539 498.265,131.205 500.5,131.5C 502.265,132.461 504.265,132.795 506.5,132.5C 503.713,133.477 500.713,133.81 497.5,133.5C 496.791,132.596 495.791,132.263 494.5,132.5 Z"/></g>
<g><path style="opacity:1" fill="#def0fe" d="M 500.5,131.5 C 510.923,131.11 521.256,131.776 531.5,133.5C 531.158,134.338 530.492,134.672 529.5,134.5C 521.494,133.957 513.827,133.29 506.5,132.5C 504.265,132.795 502.265,132.461 500.5,131.5 Z"/></g>
<g><path style="opacity:1" fill="#bce1ff" d="M 617.5,132.5 C 618.568,131.566 619.901,131.232 621.5,131.5C 622.568,132.434 623.901,132.768 625.5,132.5C 623.735,133.461 621.735,133.795 619.5,133.5C 619.158,132.662 618.492,132.328 617.5,132.5 Z"/></g>
<g><path style="opacity:1" fill="#e5f2fe" d="M 648.5,131.5 C 648.158,132.338 647.492,132.672 646.5,132.5C 639.5,132.5 632.5,132.5 625.5,132.5C 623.901,132.768 622.568,132.434 621.5,131.5C 630.503,130.208 639.503,130.208 648.5,131.5 Z"/></g>
<g><path style="opacity:1" fill="#d1e9fe" d="M 488.5,133.5 C 490.265,132.539 492.265,132.205 494.5,132.5C 495.791,132.263 496.791,132.596 497.5,133.5C 495.194,133.993 492.861,134.326 490.5,134.5C 490.158,133.662 489.492,133.328 488.5,133.5 Z"/></g>
<g><path style="opacity:1" fill="#cfe9ff" d="M 610.5,133.5 C 612.607,132.532 614.941,132.198 617.5,132.5C 618.492,132.328 619.158,132.662 619.5,133.5C 617.194,133.993 614.861,134.326 612.5,134.5C 612.158,133.662 611.492,133.328 610.5,133.5 Z"/></g>
<g><path style="opacity:1" fill="#c0e2ff" d="M 648.5,131.5 C 650.735,131.205 652.735,131.539 654.5,132.5C 653.508,132.328 652.842,132.662 652.5,133.5C 650.265,133.795 648.265,133.461 646.5,132.5C 647.492,132.672 648.158,132.338 648.5,131.5 Z"/></g>
<g><path style="opacity:1" fill="#d9edfd" d="M 652.5,133.5 C 652.842,132.662 653.508,132.328 654.5,132.5C 657.57,132.368 660.57,132.701 663.5,133.5C 663.158,134.338 662.492,134.672 661.5,134.5C 658.455,134.492 655.455,134.159 652.5,133.5 Z"/></g>
<g><path style="opacity:1" fill="#bee1fe" d="M 663.5,133.5 C 664.791,133.263 665.791,133.596 666.5,134.5C 665.508,134.328 664.842,134.662 664.5,135.5C 663.209,135.737 662.209,135.404 661.5,134.5C 662.492,134.672 663.158,134.338 663.5,133.5 Z"/></g>
<g><path style="opacity:1" fill="#d9edfe" d="M 531.5,133.5 C 544.563,136.196 556.896,140.863 568.5,147.5C 581.759,140.533 595.759,135.867 610.5,133.5C 611.492,133.328 612.158,133.662 612.5,134.5C 597.989,136.781 584.322,141.448 571.5,148.5C 606.812,171.643 634.646,201.643 655,238.5C 680.12,284.699 698.62,333.366 710.5,384.5C 710.167,384.5 709.833,384.5 709.5,384.5C 709.167,384.5 708.833,384.5 708.5,384.5C 707.833,384.5 707.5,384.167 707.5,383.5C 696.335,332.502 678.169,284.169 653,238.5C 636.562,210.055 615.729,185.222 590.5,164C 583.573,158.577 576.24,153.744 568.5,149.5C 536.907,167.593 511.74,192.26 493,223.5C 469.468,265.595 454.635,310.595 448.5,358.5C 447.833,358.5 447.5,358.167 447.5,357.5C 453.506,302.638 471.673,252.304 502,206.5C 518.916,182.413 540.083,163.08 565.5,148.5C 554.104,142.039 542.104,137.373 529.5,134.5C 530.492,134.672 531.158,134.338 531.5,133.5 Z"/></g>
<g><path style="opacity:1" fill="#d9edfe" d="M 488.5,133.5 C 489.492,133.328 490.158,133.662 490.5,134.5C 458.735,141.298 432.235,156.965 411,181.5C 387.353,209.537 369.02,240.871 356,275.5C 344.842,305.143 336.008,335.476 329.5,366.5C 329.685,367.584 330.018,368.584 330.5,369.5C 329.833,369.5 329.167,369.5 328.5,369.5C 328.672,368.508 328.338,367.842 327.5,367.5C 336.508,322.31 351.008,278.977 371,237.5C 386.942,205.562 408.775,178.396 436.5,156C 452.05,144.392 469.383,136.892 488.5,133.5 Z"/></g>
<g><path style="opacity:1" fill="#d8ecfe" d="M 664.5,135.5 C 664.842,134.662 665.508,134.328 666.5,134.5C 702.44,142.884 732.607,160.884 757,188.5C 788.298,225.769 808.965,268.436 819,316.5C 822.239,330.009 824.406,343.675 825.5,357.5C 825.737,358.791 825.404,359.791 824.5,360.5C 818.899,304.853 800.732,253.853 770,207.5C 754,186.163 734.833,168.33 712.5,154C 697.423,145.365 681.423,139.198 664.5,135.5 Z"/></g>
<g><path style="opacity:1" fill="#c0e3ff" d="M 825.5,357.5 C 826.451,358.919 826.784,360.585 826.5,362.5C 825.662,362.842 825.328,363.508 825.5,364.5C 824.566,363.432 824.232,362.099 824.5,360.5C 825.404,359.791 825.737,358.791 825.5,357.5 Z"/></g>
<g><path style="opacity:1" fill="#cae6fe" d="M 447.5,357.5 C 447.5,358.167 447.833,358.5 448.5,358.5C 448.122,363.58 447.455,368.58 446.5,373.5C 445.833,373.5 445.5,373.167 445.5,372.5C 445.444,367.269 446.111,362.269 447.5,357.5 Z"/></g>
<g><path style="opacity:1" fill="#b2b3b4" d="M 327.5,368.5 C 325.292,378.747 323.626,389.08 322.5,399.5C 321.566,400.568 321.232,401.901 321.5,403.5C 287.5,403.5 253.5,403.5 219.5,403.5C 237.086,400.938 254.42,396.771 271.5,391C 283.766,386.369 294.1,379.036 302.5,369C 310.827,368.5 319.16,368.334 327.5,368.5 Z"/></g>
<g><path style="opacity:1" fill="#b2b3b3" d="M 328.5,369.5 C 329.167,369.5 329.833,369.5 330.5,369.5C 366.244,370.266 402.244,371.599 438.5,373.5C 440.921,373.44 443.254,373.107 445.5,372.5C 445.5,373.167 445.833,373.5 446.5,373.5C 533.211,377.126 620.211,380.459 707.5,383.5C 707.5,384.167 707.833,384.5 708.5,384.5C 711.903,402.348 715.237,420.181 718.5,438C 690.796,437.867 663.129,436.7 635.5,434.5C 634.5,434.833 633.5,435.167 632.5,435.5C 588.858,499.798 544.858,563.798 500.5,627.5C 457.682,553.202 414.848,478.869 372,404.5C 355.564,403.84 339.064,403.173 322.5,402.5C 323.791,401.473 323.791,400.473 322.5,399.5C 324.699,389.664 326.699,379.664 328.5,369.5 Z"/></g>
<g><path style="opacity:1" fill="#f9fcfe" d="M 327.5,367.5 C 328.338,367.842 328.672,368.508 328.5,369.5C 326.699,379.664 324.699,389.664 322.5,399.5C 323.626,389.08 325.292,378.747 327.5,368.5C 327.5,368.167 327.5,367.833 327.5,367.5 Z"/></g>
<g><path style="opacity:1" fill="#d6ecfe" d="M 826.5,362.5 C 827.587,371.128 828.254,379.795 828.5,388.5C 827.833,388.5 827.167,388.5 826.5,388.5C 826.269,380.495 825.935,372.495 825.5,364.5C 825.328,363.508 825.662,362.842 826.5,362.5 Z"/></g>
<g><path style="opacity:1" fill="#b2b3b3" d="M 709.5,384.5 C 709.833,384.5 710.167,384.5 710.5,384.5C 749.451,385.625 788.118,386.958 826.5,388.5C 827.167,388.5 827.833,388.5 828.5,388.5C 853.154,389.731 877.821,390.731 902.5,391.5C 902.5,579.5 902.5,767.5 902.5,955.5C 883.83,955.333 865.164,955.5 846.5,956C 824.355,966.988 802.022,977.488 779.5,987.5C 780.653,805.824 782.319,624.157 784.5,442.5C 762.835,441.465 741.168,440.465 719.5,439.5C 716.681,421.073 713.348,402.739 709.5,384.5 Z"/></g>
<g><path style="opacity:1" fill="#fefefe" d="M 708.5,384.5 C 708.833,384.5 709.167,384.5 709.5,384.5C 713.348,402.739 716.681,421.073 719.5,439.5C 741.168,440.465 762.835,441.465 784.5,442.5C 782.319,624.157 780.653,805.824 779.5,987.5C 734.952,987.929 690.285,987.929 645.5,987.5C 645.833,879.165 645.5,770.831 644.5,662.5C 643.893,662.624 643.56,662.957 643.5,663.5C 596.848,732.789 549.681,801.789 502,870.5C 493.944,858.617 486.11,846.617 478.5,834.5C 437.735,772.625 396.735,710.958 355.5,649.5C 355.013,648.527 354.513,647.527 354,646.5C 353.5,749.833 353.333,853.166 353.5,956.5C 308.5,956.5 263.5,956.5 218.5,956.5C 217.715,772.167 217.048,587.834 216.5,403.5C 217.5,403.5 218.5,403.5 219.5,403.5C 253.5,403.5 287.5,403.5 321.5,403.5C 321.232,401.901 321.566,400.568 322.5,399.5C 323.791,400.473 323.791,401.473 322.5,402.5C 339.064,403.173 355.564,403.84 372,404.5C 414.848,478.869 457.682,553.202 500.5,627.5C 544.858,563.798 588.858,499.798 632.5,435.5C 633.5,435.167 634.5,434.833 635.5,434.5C 663.129,436.7 690.796,437.867 718.5,438C 715.237,420.181 711.903,402.348 708.5,384.5 Z"/></g>
<g><path style="opacity:1" fill="#aeb3b7" d="M 355.5,649.5 C 354.833,700.166 354.5,750.999 354.5,802C 354.5,853.171 355.167,904.004 356.5,954.5C 355.71,955.401 354.71,956.068 353.5,956.5C 353.333,853.166 353.5,749.833 354,646.5C 354.513,647.527 355.013,648.527 355.5,649.5 Z"/></g>
<g><path style="opacity:1" fill="#b2b3b3" d="M 355.5,649.5 C 396.735,710.958 437.735,772.625 478.5,834.5C 477.502,858.661 477.169,882.994 477.5,907.5C 459.164,907.333 440.83,907.5 422.5,908C 400.646,923.756 378.646,939.256 356.5,954.5C 355.167,904.004 354.5,853.171 354.5,802C 354.5,750.999 354.833,700.166 355.5,649.5 Z"/></g>
<g><path style="opacity:1" fill="#dbeffe" d="M 643.5,663.5 C 643.56,662.957 643.893,662.624 644.5,662.5C 645.5,770.831 645.833,879.165 645.5,987.5C 644.833,879.5 644.167,771.5 643.5,663.5 Z"/></g>
<g><path style="opacity:1" fill="#fcfdfe" d="M 595.5,1033.5 C 618.075,1033.17 640.575,1033.51 663,1034.5C 676,1079.5 689,1124.5 702,1169.5C 704.259,1164.64 706.259,1159.64 708,1154.5C 710.432,1153.55 712.932,1153.55 715.5,1154.5C 705.921,1183 695.755,1211.33 685,1239.5C 684.465,1241.27 683.631,1241.6 682.5,1240.5C 661.758,1174.61 641.425,1108.61 621.5,1042.5C 613.16,1042.67 604.827,1042.5 596.5,1042C 595.556,1039.28 595.223,1036.45 595.5,1033.5 Z"/></g>
<g><path style="opacity:1" fill="#fcfdfe" d="M 740.5,1033.5 C 760.5,1033.5 780.5,1033.5 800.5,1033.5C 800.5,1036.5 800.5,1039.5 800.5,1042.5C 795.5,1042.5 790.5,1042.5 785.5,1042.5C 785.667,1091.17 785.5,1139.83 785,1188.5C 782.58,1207.53 773.08,1221.7 756.5,1231C 770.496,1231.5 784.496,1231.67 798.5,1231.5C 798.784,1234.78 798.451,1237.94 797.5,1241C 772.502,1241.5 747.502,1241.67 722.5,1241.5C 722.5,1238.5 722.5,1235.5 722.5,1232.5C 730.234,1232.99 736.067,1229.99 740,1223.5C 740.5,1160.17 740.667,1096.83 740.5,1033.5 Z"/></g>
<g><path style="opacity:1" fill="#fbfdfe" d="M 414.5,1034.5 C 424.283,1034.97 434.283,1035.8 444.5,1037C 450.257,1043.85 448.59,1048.18 439.5,1050C 417.517,1049.64 395.85,1051.97 374.5,1057C 348.649,1064.88 342.149,1080.72 355,1104.5C 358.5,1108 362,1111.5 365.5,1115C 376.51,1121.84 387.844,1128.17 399.5,1134C 439.935,1158.72 445.769,1189.88 417,1227.5C 410,1235.83 402.333,1243.5 394,1250.5C 386.132,1248.21 378.299,1245.71 370.5,1243C 369.09,1242.63 368.09,1241.8 367.5,1240.5C 382.139,1234.69 393.972,1225.36 403,1212.5C 408.964,1199.19 408.964,1185.86 403,1172.5C 398.599,1164.2 393.099,1156.7 386.5,1150C 374.185,1140.51 361.518,1131.51 348.5,1123C 329.808,1109.46 321.642,1091.29 324,1068.5C 327.688,1058.81 334.188,1051.64 343.5,1047C 352.558,1043.4 361.891,1040.74 371.5,1039C 385.908,1036.71 400.241,1035.21 414.5,1034.5 Z"/></g>
<g><path style="opacity:1" fill="#fcfdfe" d="M 598.5,1233.5 C 604.868,1233.83 611.202,1233.5 617.5,1232.5C 617.376,1231.89 617.043,1231.56 616.5,1231.5C 598.346,1185.19 580.18,1138.85 562,1092.5C 560.077,1096.09 558.244,1099.75 556.5,1103.5C 554.257,1104.47 551.924,1104.81 549.5,1104.5C 557.472,1081.55 566.306,1058.88 576,1036.5C 576.893,1035.29 577.726,1035.29 578.5,1036.5C 605.704,1101.74 633.038,1166.91 660.5,1232C 665.418,1232.19 670.251,1232.69 675,1233.5C 675.777,1236.43 675.61,1239.26 674.5,1242C 649.169,1242.5 623.836,1242.67 598.5,1242.5C 598.5,1239.5 598.5,1236.5 598.5,1233.5 Z"/></g>
<g><path style="opacity:1" fill="#fafdfe" d="M 300.5,1051.5 C 301.124,1051.92 301.457,1052.58 301.5,1053.5C 292.643,1079.25 298.643,1100.75 319.5,1118C 331.658,1126.91 343.992,1135.58 356.5,1144C 369.385,1153.21 378.885,1165.04 385,1179.5C 392.221,1204.15 385.054,1223.32 363.5,1237C 338.526,1238.83 313.526,1239 288.5,1237.5C 289.22,1231.86 289.553,1226.2 289.5,1220.5C 314.169,1220.67 338.836,1220.5 363.5,1220C 374.297,1205.36 374.131,1190.86 363,1176.5C 359.466,1172.63 355.633,1169.13 351.5,1166C 333.209,1154.71 316.376,1141.54 301,1126.5C 284.593,1101.58 284.426,1076.58 300.5,1051.5 Z"/></g>
<g><path style="opacity:1" fill="#fcfdfe" d="M 548.5,1153.5 C 555.508,1153.33 562.508,1153.5 569.5,1154C 570.938,1154.22 572.271,1154.72 573.5,1155.5C 565.178,1161.8 559.011,1169.8 555,1179.5C 551.69,1189.41 548.69,1199.41 546,1209.5C 532.59,1237.91 510.757,1247.91 480.5,1239.5C 487.862,1233.3 494.362,1226.3 500,1218.5C 504.102,1208.43 507.436,1198.09 510,1187.5C 517.78,1170.21 530.613,1158.87 548.5,1153.5 Z"/></g>
<g><path style="opacity:1" fill="#f8fbfe" d="M 435.5,1156.5 C 441.177,1160.01 447.177,1163.01 453.5,1165.5C 468.305,1201.75 458.971,1229.75 425.5,1249.5C 421.226,1248.03 417.226,1246.03 413.5,1243.5C 425.54,1235.29 435.373,1224.96 443,1212.5C 446.839,1202.07 447.506,1191.41 445,1180.5C 442.316,1172.28 439.15,1164.28 435.5,1156.5 Z"/></g>
<g><path style="opacity:1" fill="#c9e6fe" d="M 616.5,1231.5 C 617.043,1231.56 617.376,1231.89 617.5,1232.5C 611.202,1233.5 604.868,1233.83 598.5,1233.5C 604.5,1232.83 610.5,1232.17 616.5,1231.5 Z"/></g>
</svg>
