<?xml version="1.0" encoding="UTF-8"?>
<!DOCTYPE svg PUBLIC "-//W3C//DTD SVG 1.1//EN" "http://www.w3.org/Graphics/SVG/1.1/DTD/svg11.dtd">
<!-- Creator: CorelDRAW 2021 (64-Bit) -->
<svg xmlns="http://www.w3.org/2000/svg" xml:space="preserve" width="5.56952in" height="7.36121in" version="1.1" style="shape-rendering:geometricPrecision; text-rendering:geometricPrecision; image-rendering:optimizeQuality; fill-rule:evenodd; clip-rule:evenodd"
viewBox="0 0 961.01 1270.16"
 xmlns:xlink="http://www.w3.org/1999/xlink"
 xmlns:xodm="http://www.corel.com/coreldraw/odm/2003">
 <defs>
  <style type="text/css">
   <![CDATA[
    .str0 {stroke:white;stroke-width:1.2;stroke-linecap:round;stroke-linejoin:round;stroke-miterlimit:2.61313}
    .fil0 {fill:none}
    .fil2 {fill:#B3B3B3}
    .fil1 {fill:white}
   ]]>
  </style>
 </defs>
 <g id="Layer_x0020_1">
  <metadata id="CorelCorpID_0Corel-Layer"/>
  <rect class="fil0" x="-0" y="-0" width="961.01" height="1270.16"/>
  <g id="_2536380929808">
   <g>
    <path class="fil1 str0" d="M315.49 1068.46c40.6,-15.91 45.17,-48.91 18.42,-76.57 -18.56,-19.19 -46.42,-25.02 -55,-53.32 -5.11,-16.85 1.54,-27.98 12.83,-34.77 12.57,-7.56 38.65,-10.78 53.65,-11.65 7.66,-0.44 16.64,-0.47 28.77,0.09 6.87,-0.28 9.52,2.56 9.77,5.48 0.26,3.09 -2.42,6.26 -15.42,5.89 -45.9,0.12 -70.18,9.91 -70.57,28.36 -0.51,24.19 22.33,33.22 39.42,42.47 47.43,25.68 46.39,62.02 0.56,101.34 -9.88,-2.6 -17.35,-5.05 -22.43,-7.33z"/>
    <path class="fil1 str0" d="M355.53 1070.85c30.97,-21.36 36.56,-41.51 18.93,-74.52 11.35,8.13 13.68,6.65 13.91,7.17 13.1,30.09 5.37,54.19 -23.18,72.31 -6.44,-3.31 -9.66,-4.97 -9.66,-4.97z"/>
    <path class="fil1 str0" d="M308.07 1065.34c-22.03,0.68 -42.11,0.65 -60.22,-0.08 0.65,-7.55 0.94,-12.05 0.87,-13.5 21.58,-0.42 42.53,-0.42 62.85,0 9.01,-11.23 10.08,-24.84 1.87,-36.76 -6.77,-9.82 -22.42,-18.27 -32.54,-26.2 -16.43,-12.87 -24.33,-16.1 -30.84,-37.12 -5.22,-16.83 -1.75,-29.53 7.54,-45.55 -12.38,43.02 11.07,53.85 40.53,74.45 26.84,18.77 38.57,38.28 31.62,62.11 -2.09,7.18 -14.59,22.41 -21.69,22.63z"/>
    <g>
     <path class="fil1 str0" d="M459.6 1054.89c-11.43,13.42 -26.9,17.56 -46.41,12.4 8.47,-6.05 14.49,-12.77 18.09,-20.17 6.02,-12.42 3.01,-19.65 13.23,-34.27 11.36,-16.25 27.28,-22.18 47.75,-17.81 -8.9,5.52 -15.38,15.61 -19.44,30.28 -3.53,12.74 -3.77,18.49 -13.21,29.57z"/>
     <polygon class="fil1 str0" points="472.43,949.76 496.11,891.71 567.4,1062.49 579.9,1062.49 579.9,1069.21 515.13,1069.21 515.13,1062.28 531.57,1062.28 482.58,937.89 477.43,950.3 "/>
     <polygon class="fil1 str0" points="512.51,896.25 512.51,890.32 569.03,890.32 603.88,1010.23 609.99,993.55 615,995.22 587.57,1068.61 534.38,896.25 "/>
     <path class="fil1 str0" d="M647.44 1061.08c15.9,-8.31 24.94,-21.15 27.13,-38.53l0 -125.56 13.19 0 0 -6.83 -50.07 0 0 161.91c-1.93,6.93 -7.24,10.17 -15.91,9.72l0 6.17 64.24 0 0 -6.87 -38.57 0z"/>
    </g>
   </g>
   <path class="fil0 str0" d="M381.63 331.58c26.43,-311.57 332.63,-283.2 331.29,28.84"/>
   <path class="fil1" d="M186.61 823.3l116.47 0 0 -267.6 128.22 193.19 123.02 -179.33 0 280.69 116.09 0 4.48 -470.66c-43.53,-2.29 -87.06,-4.58 -130.58,-6.87l-114.54 167.24 -111.11 -193.98 -133.68 0.21 1.64 477.12z"/>
   <path class="fil2" d="M184.16 346.29c44.9,-5.76 62.39,-14.8 75.58,-30.63 173.47,6.67 345.29,13.56 517.12,20.45 -30.29,22.75 -59.01,37.15 -101.97,43.48 -43.53,-2.29 -87.06,-4.58 -130.58,-6.87l-114.54 167.24 -111.11 -193.98 -134.49 0.32z"/>
   <path class="fil2" d="M674.89 379.59c42.96,-6.33 71.68,-20.73 101.97,-43.48l0 486.13 -47.44 0 -59.01 28.01 4.48 -470.66z"/>
   <polygon class="fil2" points="303.08,823.3 363.25,780.94 409.98,780.94 409.98,716.77 303.08,555.7 "/>
   <path class="fil0 str0" d="M268.21 410.09c34.23,-429.48 329.64,-372.87 356.57,28.84"/>
  </g>
 </g>
</svg>
