<?xml version="1.0" standalone="no"?>
<!DOCTYPE svg PUBLIC "-//W3C//DTD SVG 20010904//EN"
 "http://www.w3.org/TR/2001/REC-SVG-20010904/DTD/svg10.dtd">
<svg version="1.0" xmlns="http://www.w3.org/2000/svg"
 width="600.000000pt" height="600.000000pt" viewBox="0 0 600.000000 600.000000"
 preserveAspectRatio="xMidYMid meet">

<g transform="translate(0.000000,600.000000) scale(0.100000,-0.100000)"
fill="#000000" stroke="none">
<path d="M2569 4638 c-89 -60 -87 -183 4 -238 30 -19 53 -20 431 -20 l399 0
34 26 c80 61 84 153 8 224 l-27 25 -407 3 -407 3 -35 -23z"/>
<path d="M1006 4348 c-10 -14 -16 -44 -16 -79 l0 -57 -134 -4 c-146 -3 -164
-9 -210 -72 -19 -25 -21 -44 -24 -237 l-3 -209 803 0 c442 0 806 0 809 0 3 0
-40 -46 -96 -102 -243 -247 -356 -524 -356 -873 -1 -337 123 -630 367 -871
l81 -81 -336 -6 c-185 -4 -546 -7 -803 -7 l-468 0 0 -192 c0 -222 9 -257 79
-296 l39 -22 2263 0 c2135 0 2266 1 2299 18 19 9 45 32 57 51 22 33 23 43 23
237 l0 204 -458 0 c-252 0 -614 3 -803 6 l-344 6 100 102 c108 109 174 200
236 329 131 271 154 595 64 894 -33 106 -120 279 -187 368 -28 39 -90 107
-137 153 l-85 82 807 0 807 0 0 208 c0 238 -6 257 -83 292 -41 19 -88 20
-1819 20 l-1778 0 0 58 c0 36 -6 66 -16 80 -15 22 -16 22 -339 22 -323 0 -324
0 -339 -22z"/>
</g>
</svg>
