<?xml version="1.0" encoding="utf-8"?>
<!-- Svg Vector Icons : http://www.onlinewebfonts.com/icon -->
<!DOCTYPE svg PUBLIC "-//W3C//DTD SVG 1.1//EN" "http://www.w3.org/Graphics/SVG/1.1/DTD/svg11.dtd">
<svg version="1.1" xmlns="http://www.w3.org/2000/svg" xmlns:xlink="http://www.w3.org/1999/xlink" x="0px" y="0px" viewBox="0 0 1000 1000" enable-background="new 0 0 1000 1000" xml:space="preserve">
<metadata> Svg Vector Icons : http://www.onlinewebfonts.com/icon </metadata>
<g><path d="M687.3,990H172c-74.9,0-135.7-60.7-135.7-135.7V145.7C36.3,70.7,97.1,10,172,10h656c74.9,0,135.7,60.7,135.7,135.7v564.8c0,34.9-13.5,68.5-37.6,93.7l-22.9,23.9c-22.7,23.9-22.7,23.9-48.6,49.9c-13.7,13.9-34.8,35.2-70.7,71.5C758.5,975.4,723.6,990,687.3,990z M197.8,938.4h478.8c29.4,0,57.9-12.1,78.5-33c31.2-31.6,50.2-50.8,62.9-63.7c25.4-25.7,25.4-25.7,47.9-49.2l15.8-16.5c19.5-20.4,30.4-47.6,30.4-75.9V171.4c0-60.7-49.2-109.9-109.9-109.9H197.8c-60.7,0-109.9,49.2-109.9,109.9v657.1C87.9,889.2,137.1,938.4,197.8,938.4z"/><path d="M296.1,490.3c0,30.3,24.5,54.8,54.8,54.8c30.3,0,54.8-24.5,54.8-54.8l0,0c0-30.3-24.5-54.8-54.8-54.8C320.6,435.5,296.1,460.1,296.1,490.3z"/><path d="M449.5,490.3c0,30.3,24.5,54.8,54.8,54.8s54.8-24.5,54.8-54.8l0,0c0-30.3-24.5-54.8-54.8-54.8S449.5,460.1,449.5,490.3z"/><path d="M603,490.3c0,30.3,24.5,54.8,54.8,54.8c30.3,0,54.8-24.5,54.8-54.8c0-30.3-24.5-54.8-54.8-54.8C627.5,435.5,603,460.1,603,490.3z"/></g>
</svg>